<?xml version="1.0" encoding="utf-8"?>
<!DOCTYPE svg PUBLIC "-//W3C//DTD SVG 20010904//EN" "http://www.w3.org/TR/2001/REC-SVG-20010904/DTD/svg10.dtd">
<svg version="1.0" xmlns="http://www.w3.org/2000/svg" width="502pt" height="502pt" viewBox="0 0 502 502" style="" preserveAspectRatio="xMidYMid meet">
<g fill="#010101FF" stroke="#010101FF">
<path d="M 237.039 166.096 C 192.430 170.345 155.302 199.872 143.542 240.451 C 142.183 245.141 140.791 252.464 140.449 256.724 C 140.107 260.984 139.647 264.762 139.426 265.119 C 138.638 266.395 141.013 286.417 142.663 292.402 C 147.304 309.239 155.410 323.266 168.197 336.586 C 184.691 353.766 206.382 364.846 230.697 368.511 C 243.012 370.367 251.908 370.379 264.004 368.555 C 303.821 362.553 335.797 337.555 349.775 301.500 C 352.548 294.347 353.346 290.668 351.936 291.539 C 351.307 291.928 351.552 291.087 352.481 289.669 C 355.298 285.369 356.627 268.882 355.132 256.760 C 352.376 234.401 343.345 215.527 327.572 199.162 C 304.230 174.944 271.117 162.850 237.039 166.096 M 265.615 169.548 C 307.054 176.774 338.972 204.548 350.028 243.000 C 352.808 252.671 353.798 272.789 351.976 282.607 C 351.273 286.398 350.598 290.400 350.477 291.500 C 350.237 293.684 350.136 293.959 345.449 305.185 C 332.352 336.553 299.895 360.812 264.000 366.060 C 251.334 367.912 230.736 366.762 219.107 363.554 C 181.062 353.057 152.697 324.626 144.513 288.786 C 142.609 280.447 141.025 260.238 142.100 258.000 C 142.497 257.175 143.325 253.448 143.941 249.717 C 148.627 221.348 170.209 193.675 198.639 179.583 C 219.326 169.329 243.546 165.700 265.615 169.548 "/></g>
<g fill="#B2B2B2FF" stroke="#B2B2B2FF">
<path d="M 169.000 196.966 L 162.500 203.547 169.000 196.966 L 175.500 190.385 169.000 196.966 "/></g>
<g fill="#B2B2B2FF" stroke="#B2B2B2FF">
<path d="M 171.000 199.961 L 165.500 205.551 171.000 199.961 L 176.500 194.370 171.000 199.961 "/></g>
<g fill="#B2B2B2FF" stroke="#B2B2B2FF">
<path d="M 327.000 337.953 L 322.500 342.556 327.000 337.953 L 331.500 333.350 327.000 337.953 "/></g>
<g fill="#2F2F2FFF" stroke="#2F2F2FFF">
<path d="M 168.500 337.500 L 173.000 342.000 168.500 337.500 L 164.000 333.000 168.500 337.500 "/></g>
<g fill="#2F2F2FFF" stroke="#2F2F2FFF">
<path d="M 326.500 197.500 L 331.000 202.000 326.500 197.500 L 322.000 193.000 326.500 197.500 "/></g>
<g fill="#2F2F2FFF" stroke="#2F2F2FFF">
<path d="M 171.000 336.000 L 175.000 340.000 171.000 336.000 L 167.000 332.000 171.000 336.000 "/></g>
<g fill="#2F2F2FFF" stroke="#2F2F2FFF">
<path d="M 325.000 200.000 L 329.000 204.000 325.000 200.000 L 321.000 196.000 325.000 200.000 "/></g>
<g fill="#B2B2B2FF" stroke="#B2B2B2FF">
<path d="M 324.500 335.435 L 321.500 338.564 324.500 335.435 L 327.500 332.305 324.500 335.435 "/></g>
<g fill="#B2B2B2FF" stroke="#B2B2B2FF">
<path d="M 167.500 331.500 L 171.000 335.000 167.500 331.500 L 164.000 328.000 167.500 331.500 "/></g>
</svg>
